<svg xmlns="http://www.w3.org/2000/svg" viewBox="0 0 1440 320">
        <path
          fill="#007faf14"
          fillOpacity="1"
          d="M0,64L34.3,101.3C68.6,139,137,213,206,245.3C274.3,277,343,267,411,250.7C480,235,549,213,617,197.3C685.7,181,754,171,823,192C891.4,213,960,267,1029,250.7C1097.1,235,1166,149,1234,101.3C1302.9,53,1371,43,1406,37.3L1440,32L1440,320L1405.7,320C1371.4,320,1303,320,1234,320C1165.7,320,1097,320,1029,320C960,320,891,320,823,320C754.3,320,686,320,617,320C548.6,320,480,320,411,320C342.9,320,274,320,206,320C137.1,320,69,320,34,320L0,320Z"
        ></path>
      </svg>